<svg xmlns="http://www.w3.org/2000/svg" viewBox="0 0 32 32" fill="none">
  <rect width="32" height="32" rx="6" fill="#f97316"/>
  <path d="M8 20v-3c0-2-1-4-1-5.5 0-1.5 1-3 3-3s3 1.5 3 3c0 1-.5 2-1 3l-1 2" stroke="white" stroke-width="2.5" stroke-linecap="round"/>
  <path d="M16 20v-3c0-2-1-4-1-5.5 0-1.5 1-3 3-3s3 1.5 3 3c0 1-.5 2-1 3l-1 2" stroke="white" stroke-width="2.5" stroke-linecap="round"/>
  <line x1="6" y1="26" x2="26" y2="26" stroke="white" stroke-width="2.5" stroke-linecap="round"/>
</svg>
